<?xml version="1.0" encoding="utf-8"?>
<!-- Generator: Adobe Illustrator 26.4.1, SVG Export Plug-In . SVG Version: 6.00 Build 0)  -->
<svg version="1.1" id="Layer_1" xmlns="http://www.w3.org/2000/svg" xmlns:xlink="http://www.w3.org/1999/xlink" x="0px" y="0px"
	 viewBox="0 0 595.28 841.89" style="enable-background:new 0 0 595.28 841.89;" xml:space="preserve">
<g>
	<path d="M376.2,564.53c1.7-4.15,3.26-7.84,4.74-11.55c15.64-39.42,31.27-78.85,46.92-118.27c0.44-1.1,0.82-2.33,1.59-3.17
		c0.7-0.77,1.96-1.61,2.85-1.5c0.94,0.13,2.03,1.19,2.53,2.13c0.52,0.99,0.5,2.3,0.59,3.48c1.19,15.89,2.33,31.79,3.53,47.68
		c1.45,19.16,2.96,38.31,4.39,57.47c0.79,10.53,1.47,21.08,2.24,32.19c4.6-1.69,9.06-2.88,13.09-4.91
		c10.96-5.51,20.92-12.33,29.11-21.76c12.43-14.31,22.93-30.05,34.4-45.07c11.11-14.55,21.85-29.4,32.75-44.11
		c11.44-15.43,22.87-30.86,34.33-46.28c2.04-2.75,4.17-5.43,6.26-8.14c0.09-0.12,0.16-0.26,0.28-0.35c1.58-1.36,3.13-2.93,5.5-1.86
		c1.99,0.9,2.95,3.52,2.17,6.19c-0.96,3.28-2.13,6.49-3.07,9.77c-4.54,15.88-9.04,31.76-13.54,47.65
		c-5.76,20.32-11.51,40.63-17.24,60.96c-5.05,17.89-10.04,35.8-15.09,53.7c-4.93,17.46-9.94,34.9-14.84,52.37
		c-4.38,15.61-8.63,31.26-12.99,46.88c-2.08,7.45-6.56,12.94-13.79,15.95c-4.58,1.9-9.39,1.51-14.02,0.5
		c-12.94-2.81-25.76-6.23-38.74-8.79c-22.04-4.35-44.15-8.41-66.29-12.24c-13.78-2.38-27.63-4.54-41.53-6.05
		c-22.97-2.49-46.03-3.6-69.16-2.7c-19.21,0.74-38.32,2.3-57.38,5c-27.43,3.87-54.68,8.72-81.79,14.34
		c-15.44,3.2-30.79,6.84-46.19,10.27c-6.22,1.38-12.22,1.67-18.08-1.85c-4.88-2.93-8.24-6.89-9.83-12.2
		c-3.03-10.11-5.8-20.3-8.64-30.46c-3.81-13.61-7.59-27.22-11.4-40.83c-5.9-21.05-11.8-42.09-17.74-63.13
		c-6.1-21.62-12.25-43.22-18.35-64.85c-6.78-24.06-13.53-48.13-20.27-72.2c-0.28-1-0.39-2.04-0.62-3.06
		c-0.42-1.87,0.3-3.14,1.91-4.08c1.69-0.98,3.26-0.54,4.55,0.55c1.12,0.94,2.01,2.19,2.89,3.37c9.45,12.64,18.89,25.29,28.32,37.95
		c11.48,15.4,22.95,30.8,34.43,46.2c11.38,15.29,22.7,30.62,34.17,45.85c7.19,9.55,14.9,18.68,24.83,25.52
		c6.37,4.39,13.15,8.16,20.63,10.48c1.69,0.52,3.35,1.12,5.39,1.8c0.12-0.7,0.24-1.22,0.28-1.73c2.11-27.92,4.2-55.84,6.31-83.76
		c1.21-16.04,2.45-32.08,3.71-48.11c0.19-2.37,0.3-4.79,0.89-7.08c0.28-1.07,1.46-2.33,2.5-2.65c0.75-0.24,2.09,0.76,2.89,1.51
		c0.72,0.68,1.16,1.72,1.54,2.68c12.14,30.55,24.25,61.12,36.36,91.68c4.82,12.17,9.64,24.35,14.47,36.52
		c0.21,0.54,0.56,1.02,1.08,1.94c3.55-2.86,7.34-5.26,10.31-8.42c8.55-9.09,15.22-19.36,18.72-31.55
		c3.84-13.37,5.2-27.18,7.43-40.83c4.6-28.21,9.06-56.44,13.53-84.68c4.51-28.53,8.95-57.07,13.42-85.6
		c4.04-25.74,8.08-51.47,12.15-77.2c0.64-4.04,1.41-8.06,2.84-12.05c0.7,3.86,1.47,7.7,2.08,11.57c2.34,14.85,4.63,29.71,6.93,44.58
		c2.56,16.62,5.07,33.26,7.67,49.88c2.14,13.68,4.4,27.34,6.55,41.02c2.01,12.79,3.92,25.6,5.91,38.39
		c1.51,9.71,3.08,19.41,4.61,29.12c2.03,12.94,3.99,25.89,6.09,38.82c2.27,13.95,4.47,27.92,7.11,41.8
		c2.09,11.01,7.49,20.48,14.26,29.42C364.19,554.71,369.97,559.21,376.2,564.53z"/>
	<path d="M270,175.93c0.04-16.26,13.28-29.6,29.58-29.36c16.96,0.25,29.54,13.23,29.45,29.89c-0.09,16.56-13.93,29.23-29.37,29.14
		C282.89,205.49,269.96,192.63,270,175.93z"/>
	<path d="M581.19,352.15c0.1-16.39,13.22-29.24,29.78-29.16c16.29,0.08,29.42,13.41,29.29,29.76
		c-0.13,16.23-13.53,29.43-29.91,29.25C593.64,381.82,580.81,367.99,581.19,352.15z"/>
	<path d="M-15.4,322.97c15.34-0.17,29.37,12.05,29.51,29.53c0.13,16.31-13.27,29.58-29.6,29.5c-16.05-0.08-29.33-12.57-29.51-29.59
		C-45.16,336.21-31.85,322.98-15.4,322.97z"/>
	<path d="M435.03,372.92c12.87-0.08,23.21,10.18,23.28,23.09c0.07,12.74-10.35,23.46-23.16,23.35
		c-13.67-0.12-23.14-10.66-23.31-23.18C411.69,384.63,421.03,372.9,435.03,372.92z"/>
	<path d="M182.88,392.04c-0.08,12.04-9.07,23.2-23.26,23.08c-15.25-0.13-23.21-12.07-23.21-23.2c0-12.88,10.39-23.38,23.3-23.14
		C174.14,369.03,182.88,380.2,182.88,392.04z"/>
</g>
</svg>
